<?xml version="1.0" encoding="utf-8"?>
<!-- Generator: Adobe Illustrator 26.0.0, SVG Export Plug-In . SVG Version: 6.00 Build 0)  -->
<svg version="1.1" id="Capa_1" xmlns="http://www.w3.org/2000/svg" xmlns:xlink="http://www.w3.org/1999/xlink" x="0px" y="0px"
	 viewBox="0 0 1066.5 617.3" style="enable-background:new 0 0 1066.5 617.3;" xml:space="preserve">
<style type="text/css">
	.st0{fill:url(#SVGID_1_);}
	.st1{clip-path:url(#SVGID_00000044855966021403454260000013789393677638832543_);}
	.st2{opacity:0.6;fill:#C85C19;}
	.st3{opacity:0.6;fill:#ED7339;}
	.st4{opacity:0.6;fill:#E89402;}
	.st5{opacity:0.6;fill:#FDC500;}
	.st6{fill:#FAF2A4;}
	.st7{font-family:'AstronomusRegular';}
	.st8{font-size:55.435px;}
	.st9{fill:#FFFFFF;}
	.st10{font-family:'MyriadHebrew-Regular';}
	.st11{font-size:35.6368px;}
	.st12{fill:#FFE35E;}
	.st13{fill:#FFF7C7;}
	.st14{font-size:22.3409px;}
	.st15{fill:#F1DFBE;}
	.st16{fill:url(#SVGID_00000054971685744769675910000004465479693612511888_);}
	.st17{opacity:0.6;clip-path:url(#SVGID_00000078037152478307577030000017925654619511740321_);fill:#C85C19;}
	.st18{opacity:0.6;clip-path:url(#SVGID_00000078037152478307577030000017925654619511740321_);fill:#ED7339;}
	.st19{opacity:0.6;clip-path:url(#SVGID_00000078037152478307577030000017925654619511740321_);fill:#E89402;}
	.st20{opacity:0.6;clip-path:url(#SVGID_00000078037152478307577030000017925654619511740321_);fill:#FDC500;}
	.st21{fill:#FFFCEE;}
	.st22{fill:url(#SVGID_00000173146940473766415450000016318721271431768998_);}
	.st23{fill:url(#SVGID_00000090257343199896810220000007454908430245709488_);}
	.st24{fill:url(#SVGID_00000154416895029658235230000014150336336343239587_);}
	.st25{fill:url(#SVGID_00000000933509350023469590000011256886232026375809_);}
	.st26{fill:url(#SVGID_00000076602345114112887700000013368009969629232798_);}
	.st27{fill:url(#SVGID_00000115479661505772796950000008819065207126054583_);}
	.st28{fill:url(#SVGID_00000142163558360202512400000010347479059834247068_);}
</style>
<g>
	<linearGradient id="SVGID_1_" gradientUnits="userSpaceOnUse" x1="17.0916" y1="14.937" x2="1049.2395" y2="602.2846">
		<stop  offset="3.724615e-03" style="stop-color:#C39E4D"/>
		<stop  offset="0.1251" style="stop-color:#BA8D39"/>
		<stop  offset="0.2643" style="stop-color:#B4812B"/>
		<stop  offset="0.4335" style="stop-color:#B07A23"/>
		<stop  offset="0.7142" style="stop-color:#AF7820"/>
		<stop  offset="0.7982" style="stop-color:#B17C24"/>
		<stop  offset="0.8852" style="stop-color:#B68631"/>
		<stop  offset="0.9734" style="stop-color:#C09745"/>
		<stop  offset="1" style="stop-color:#C39E4D"/>
	</linearGradient>
	<rect class="st0" width="1066.5" height="617.3"/>
	<g>
		<defs>
			<rect id="SVGID_00000163050036502945795280000016700976634633720504_" width="1066.5" height="617.3"/>
		</defs>
		<clipPath id="SVGID_00000070091871860505192560000006519237358758339477_">
			<use xlink:href="#SVGID_00000163050036502945795280000016700976634633720504_"  style="overflow:visible;"/>
		</clipPath>
		<g style="clip-path:url(#SVGID_00000070091871860505192560000006519237358758339477_);">
			
				<rect x="47" y="-105" transform="matrix(-0.8648 -0.5021 0.5021 -0.8648 479.269 53.6436)" class="st2" width="399.7" height="134.7"/>
			
				<rect x="-111.8" y="200.6" transform="matrix(-0.8648 -0.5021 0.5021 -0.8648 236.9376 599.5823)" class="st2" width="622" height="134.7"/>
			
				<rect x="-136.2" y="552.3" transform="matrix(-0.8648 -0.5021 0.5021 -0.8648 -120.1317 1178.5734)" class="st2" width="469.6" height="106.3"/>
			
				<rect x="29.2" y="-16.4" transform="matrix(-0.8648 -0.5021 0.5021 -0.8648 407.9346 211.7637)" class="st2" width="406.5" height="134.7"/>
			
				<rect x="-72.3" y="0.2" transform="matrix(0.8648 0.5021 -0.5021 0.8648 36.9599 -2.2723)" class="st3" width="190" height="134.7"/>
			
				<rect x="-117.6" y="314.2" transform="matrix(0.8648 0.5021 -0.5021 0.8648 203.948 5.6051)" class="st4" width="418.4" height="134.7"/>
			
				<rect x="80" y="98.8" transform="matrix(0.8648 0.5021 -0.5021 0.8648 118.0642 -106.186)" class="st3" width="352.4" height="134.7"/>
			
				<rect x="-110" y="399.1" transform="matrix(0.8648 0.5021 -0.5021 0.8648 220.6037 47.3713)" class="st5" width="264.6" height="68.5"/>
			
				<rect x="78.9" y="519.7" transform="matrix(0.8648 0.5021 -0.5021 0.8648 329.2466 -48.7313)" class="st3" width="352.4" height="134.7"/>
			
				<rect x="-4.4" y="301.9" transform="matrix(0.8648 0.5021 -0.5021 0.8648 206.0826 -50.3553)" class="st3" width="401.9" height="111.1"/>
			
				<rect x="198" y="-2.8" transform="matrix(0.8648 0.5021 -0.5021 0.8648 56.0306 -166.3535)" class="st4" width="277.8" height="47.3"/>
			
				<rect x="125.6" y="3.8" transform="matrix(-0.5021 0.8648 -0.8648 -0.5021 271.254 -7.2272)" class="st4" width="24.2" height="141.4"/>
			
				<rect x="-131.6" y="244.5" transform="matrix(0.8648 0.5021 -0.5021 0.8648 140.6699 13.8336)" class="st5" width="352.4" height="47.3"/>
			
				<rect x="197.6" y="267.8" transform="matrix(0.8648 0.5021 -0.5021 0.8648 196.8918 -148.2759)" class="st5" width="352.4" height="47.3"/>
			
				<rect x="-92.3" y="475.7" transform="matrix(0.8648 0.5021 -0.5021 0.8648 251.2507 55.7053)" class="st4" width="228.9" height="37.3"/>
		</g>
	</g>
	<g>
		
			<image style="overflow:visible;opacity:0.7;" width="578" height="107" xlink:href="CD09FECC.png"  transform="matrix(1 0 0 1 473.0461 22.5846)">
		</image>
		<g>
			<text transform="matrix(1 0 0 1 710.1307 71.7211)"><tspan x="0" y="0" class="st6 st7 st8">JUAN JOSE</tspan><tspan x="-235.5" y="43.6" class="st6 st7 st8">HUERTAS BOTACHE</tspan></text>
		</g>
	</g>
	<g>
		<g>
			<text transform="matrix(1 0 0 1 748.9832 530.0414)"><tspan x="0" y="0" class="st9 st10 st11">Calle 13 #7-82</tspan><tspan x="-123.1" y="31.7" class="st9 st10 st11">Pueblo nuevo (centro)</tspan><tspan x="-22.7" y="63.4" class="st9 st10 st11">Ibagué - Tolima</tspan></text>
			<text transform="matrix(1 0 0 1 522.1551 221.0472)" class="st9 st10 st11">jjhuertasbotache@gmail.com</text>
			<text transform="matrix(1 0 0 1 774.3924 445.5326)" class="st9 st10 st11">3012167977</text>
			<text transform="matrix(1 0 0 1 552.0193 330.3216)" class="st9 st10 st11">juanjosehuertasbotache.ga</text>
		</g>
	</g>
	<path class="st12" d="M1015.6,583.5c0,0,27.1-25.7,27.1-45.1c0-15-12.1-27.1-27.1-27.1s-27.1,12.1-27.1,27.1
		C988.5,557.9,1015.6,583.5,1015.6,583.5z M1015.6,551.9c-7.5,0-13.5-6.1-13.5-13.5s6.1-13.5,13.5-13.5s13.5,6.1,13.5,13.5
		S1023,551.9,1015.6,551.9z"/>
	<path class="st12" d="M979.8,193.3c0-4.9,4-8.9,8.9-8.9h53.6c4.9,0,8.9,4,8.9,8.9V229c0,4.9-4,8.9-8.9,8.9h-53.6
		c-4.9,0-8.9-4-8.9-8.9V193.3z M988.7,188.8c-2.5,0-4.5,2-4.5,4.5v1l31.3,18.8l31.3-18.8v-1c0-2.5-2-4.5-4.5-4.5H988.7z
		 M1046.8,199.5l-21,12.6l21,12.9V199.5z M1046.7,230.2l-25.2-15.5l-5.9,3.6l-5.9-3.6l-25.2,15.5c0.5,2,2.3,3.3,4.3,3.3h53.6
		C1044.4,233.5,1046.2,232.2,1046.7,230.2z M984.3,225l21-12.9l-21-12.6V225z"/>
	<g>
		<g>
			<path class="st12" d="M1029,404.1c2.5,0,4.5,2,4.5,4.5v53.6c0,2.5-2,4.5-4.5,4.5h-26.8c-2.5,0-4.5-2-4.5-4.5v-53.6
				c0-2.5,2-4.5,4.5-4.5H1029z M1002.1,399.6c-4.9,0-8.9,4-8.9,8.9v53.6c0,4.9,4,8.9,8.9,8.9h26.8c4.9,0,8.9-4,8.9-8.9v-53.6
				c0-4.9-4-8.9-8.9-8.9H1002.1z"/>
			<path class="st12" d="M1015.6,462.2c2.5,0,4.5-2,4.5-4.5s-2-4.5-4.5-4.5s-4.5,2-4.5,4.5S1013.1,462.2,1015.6,462.2z"/>
		</g>
	</g>
	<path class="st12" d="M979.8,323.3c0-19.7,16-35.8,35.8-35.8s35.8,16,35.8,35.8c0,19.7-16,35.8-35.8,35.8S979.8,343,979.8,323.3z
		 M1013.3,292.3c-3,0.9-6,3.7-8.4,8.3c-0.8,1.5-1.5,3.1-2.1,4.8h10.5V292.3z M998.1,305.4c0.7-2.4,1.7-4.7,2.9-6.9
		c0.8-1.5,1.7-2.9,2.7-4.2c-5.5,2.3-10.3,6.1-13.7,11H998.1z M995.5,321c0.1-3.9,0.6-7.7,1.4-11.2h-9.6c-1.7,3.5-2.7,7.3-2.9,11.2
		H995.5z M1001.5,309.8c-0.9,3.7-1.4,7.4-1.5,11.2h13.4v-11.2H1001.5z M1017.8,309.8V321h13.4c-0.1-3.8-0.6-7.5-1.5-11.2H1017.8z
		 M1000,325.5c0.1,3.8,0.6,7.5,1.5,11.2h11.9v-11.2H1000z M1017.8,325.5v11.2h11.9c0.8-3.4,1.4-7.2,1.5-11.2H1017.8z M1002.8,341.1
		c0.6,1.7,1.3,3.3,2.1,4.8c2.5,4.6,5.4,7.4,8.4,8.3v-13.1H1002.8z M1003.6,352.2c-1-1.3-1.9-2.7-2.7-4.2c-1.2-2.2-2.1-4.5-2.9-6.9
		h-8.2C993.3,346.1,998.1,349.9,1003.6,352.2z M996.9,336.7c-0.8-3.7-1.3-7.4-1.4-11.2h-11.1c0.3,4,1.3,7.7,2.9,11.2H996.9z
		 M1027.5,352.2c5.5-2.3,10.3-6.1,13.7-11h-8.2c-0.7,2.4-1.7,4.7-2.9,6.9C1029.4,349.5,1028.5,350.9,1027.5,352.2z M1017.8,341.1
		v13.1c3-0.9,6-3.7,8.4-8.3c0.8-1.4,1.5-3,2.1-4.8L1017.8,341.1z M1034.2,336.7h9.6c1.6-3.4,2.7-7.2,2.9-11.2h-11.1
		C1035.5,329.2,1035,333,1034.2,336.7z M1046.8,321c-0.3-3.9-1.3-7.7-2.9-11.2h-9.6c0.8,3.5,1.3,7.3,1.4,11.2H1046.8z M1030.2,298.5
		c1.1,2.1,2.1,4.4,2.9,6.9h8.2c-3.4-4.9-8.2-8.8-13.7-11C1028.5,295.6,1029.4,297,1030.2,298.5z M1028.3,305.4
		c-0.6-1.6-1.3-3.2-2.1-4.8c-2.5-4.6-5.4-7.4-8.4-8.3v13.1H1028.3z"/>
	<g>
		
			<image style="overflow:visible;opacity:0.8;" width="609" height="30" xlink:href="CD09FECD.png"  transform="matrix(1 0 0 1 442.0461 121.5846)">
		</image>
		<g>
			<g>
				<text transform="matrix(1 0 0 1 443.1853 144.2845)" class="st13 st7 st14">Tecnico en diseno e integracion de multimedia</text>
				
					<rect x="464.8" y="125.4" transform="matrix(0.853 -0.522 0.522 0.853 2.629 262.7936)" class="st15" width="5.9" height="2.7"/>
				<rect x="642.4" y="126.8" class="st15" width="12.6" height="1.7"/>
				
					<rect x="833.8" y="125" transform="matrix(0.853 -0.522 0.522 0.853 57.0749 455.3333)" class="st15" width="5.9" height="2.7"/>
			</g>
		</g>
	</g>
</g>
<g>
	
		<linearGradient id="SVGID_00000155112468807204805620000007348008903718406799_" gradientUnits="userSpaceOnUse" x1="17.0916" y1="-694.917" x2="1049.2395" y2="-107.5694">
		<stop  offset="3.724615e-03" style="stop-color:#C39E4D"/>
		<stop  offset="0.1251" style="stop-color:#BA8D39"/>
		<stop  offset="0.2643" style="stop-color:#B4812B"/>
		<stop  offset="0.4335" style="stop-color:#B07A23"/>
		<stop  offset="0.7142" style="stop-color:#AF7820"/>
		<stop  offset="0.7982" style="stop-color:#B17C24"/>
		<stop  offset="0.8852" style="stop-color:#B68631"/>
		<stop  offset="0.9734" style="stop-color:#C09745"/>
		<stop  offset="1" style="stop-color:#C39E4D"/>
	</linearGradient>
	<rect y="-709.9" style="fill:url(#SVGID_00000155112468807204805620000007348008903718406799_);" width="1066.5" height="617.3"/>
	<g>
		<defs>
			<rect id="SVGID_00000088125329773123295570000001926675443854375045_" y="-709.9" width="1066.5" height="617.3"/>
		</defs>
		<clipPath id="SVGID_00000154400354817940807270000008017557790097130633_">
			<use xlink:href="#SVGID_00000088125329773123295570000001926675443854375045_"  style="overflow:visible;"/>
		</clipPath>
		
			<rect x="891.6" y="-81.8" transform="matrix(0.8648 0.5021 -0.5021 0.8648 113.7172 -519.0097)" style="opacity:0.6;clip-path:url(#SVGID_00000154400354817940807270000008017557790097130633_);fill:#C85C19;" width="258.2" height="66.8"/>
		
			<rect x="957.2" y="-306.2" transform="matrix(0.8648 0.5021 -0.5021 0.8648 9.8763 -582.3273)" style="opacity:0.6;clip-path:url(#SVGID_00000154400354817940807270000008017557790097130633_);fill:#C85C19;" width="258.2" height="66.8"/>
		
			<rect x="801" y="-14.9" transform="matrix(0.8648 0.5021 -0.5021 0.8648 135.0448 -464.5043)" style="opacity:0.6;clip-path:url(#SVGID_00000154400354817940807270000008017557790097130633_);fill:#C85C19;" width="258.2" height="66.8"/>
		
			<rect x="829.5" y="-260.6" transform="matrix(0.8648 0.5021 -0.5021 0.8648 7.4134 -514.2189)" style="opacity:0.6;clip-path:url(#SVGID_00000154400354817940807270000008017557790097130633_);fill:#C85C19;" width="258.2" height="34.5"/>
		
			<rect x="868.4" y="-228.1" transform="matrix(-0.8648 -0.5021 0.5021 -0.8648 1957.8589 137.8314)" style="opacity:0.6;clip-path:url(#SVGID_00000154400354817940807270000008017557790097130633_);fill:#ED7339;" width="258.2" height="66.8"/>
		
			<rect x="738" y="-110.9" transform="matrix(-0.8648 -0.5021 0.5021 -0.8648 1655.8228 290.8047)" style="opacity:0.6;clip-path:url(#SVGID_00000154400354817940807270000008017557790097130633_);fill:#ED7339;" width="258.2" height="66.8"/>
		
			<rect x="1019.6" y="-434.8" transform="matrix(-0.8648 -0.5021 0.5021 -0.8648 2355.2085 -214.8752)" style="opacity:0.6;clip-path:url(#SVGID_00000154400354817940807270000008017557790097130633_);fill:#ED7339;" width="258.2" height="20.6"/>
		
			<rect x="1002.6" y="-91.5" transform="matrix(-0.8648 -0.5021 0.5021 -0.8648 2150.3313 419.4258)" style="opacity:0.6;clip-path:url(#SVGID_00000154400354817940807270000008017557790097130633_);fill:#E89402;" width="258.2" height="23.5"/>
		
			<rect x="807.7" y="-149.9" transform="matrix(-0.8648 -0.5021 0.5021 -0.8648 1758.3163 197.0343)" style="opacity:0.6;clip-path:url(#SVGID_00000154400354817940807270000008017557790097130633_);fill:#E89402;" width="196" height="23.5"/>
		
			<rect x="966.7" y="-245.3" transform="matrix(-0.8648 -0.5021 0.5021 -0.8648 2146.5293 166.9223)" style="opacity:0.6;clip-path:url(#SVGID_00000154400354817940807270000008017557790097130633_);fill:#ED7339;" width="258.2" height="79.6"/>
		
			<rect x="845.6" y="-187.3" transform="matrix(-0.8648 -0.5021 0.5021 -0.8648 1891.741 214.3157)" style="opacity:0.6;clip-path:url(#SVGID_00000154400354817940807270000008017557790097130633_);fill:#FDC500;" width="258.2" height="79.6"/>
		
			<rect x="885.4" y="-498" transform="matrix(-0.8648 -0.5021 0.5021 -0.8648 2132.3635 -383.9962)" style="opacity:0.6;clip-path:url(#SVGID_00000154400354817940807270000008017557790097130633_);fill:#FDC500;" width="258.2" height="37.8"/>
		
			<rect x="575.6" y="-86.1" transform="matrix(-0.8648 -0.5021 0.5021 -0.8648 1352.5219 210.7761)" style="opacity:0.6;clip-path:url(#SVGID_00000154400354817940807270000008017557790097130633_);fill:#FDC500;" width="258.2" height="18.9"/>
		
			<rect x="1115.4" y="-445.9" transform="matrix(-0.8648 -0.5021 0.5021 -0.8648 2527.8333 -144.3116)" style="opacity:0.6;clip-path:url(#SVGID_00000154400354817940807270000008017557790097130633_);fill:#C85C19;" width="258.2" height="66.8"/>
		
			<rect x="987.7" y="-400.2" transform="matrix(-0.8648 -0.5021 0.5021 -0.8648 2274.8857 -153.4586)" style="opacity:0.6;clip-path:url(#SVGID_00000154400354817940807270000008017557790097130633_);fill:#C85C19;" width="258.2" height="34.5"/>
		
			<rect x="1026.6" y="-367.7" transform="matrix(0.8648 0.5021 -0.5021 0.8648 -11.6212 -625.486)" style="opacity:0.6;clip-path:url(#SVGID_00000154400354817940807270000008017557790097130633_);fill:#ED7339;" width="258.2" height="66.8"/>
		
			<rect x="1229.9" y="-322.1" transform="matrix(0.8648 0.5021 -0.5021 0.8648 41.9624 -720.5245)" style="opacity:0.6;clip-path:url(#SVGID_00000154400354817940807270000008017557790097130633_);fill:#FDC500;" width="258.2" height="79.6"/>
		
			<rect x="1003.8" y="-327" transform="matrix(0.8648 0.5021 -0.5021 0.8648 8.9729 -607.6831)" style="opacity:0.6;clip-path:url(#SVGID_00000154400354817940807270000008017557790097130633_);fill:#FDC500;" width="258.2" height="79.6"/>
		
			<rect x="-83.2" y="-787.5" transform="matrix(-0.8648 -0.5021 0.5021 -0.8648 464.191 -1383.0908)" style="opacity:0.6;clip-path:url(#SVGID_00000154400354817940807270000008017557790097130633_);fill:#C85C19;" width="258.2" height="66.8"/>
		
			<rect x="-148.8" y="-563" transform="matrix(-0.8648 -0.5021 0.5021 -0.8648 229.0359 -997.4366)" style="opacity:0.6;clip-path:url(#SVGID_00000154400354817940807270000008017557790097130633_);fill:#C85C19;" width="258.2" height="66.8"/>
		
			<rect x="7.4" y="-854.3" transform="matrix(-0.8648 -0.5021 0.5021 -0.8648 666.6183 -1462.2993)" style="opacity:0.6;clip-path:url(#SVGID_00000154400354817940807270000008017557790097130633_);fill:#C85C19;" width="258.2" height="66.8"/>
		
			<rect x="-21.1" y="-576.3" transform="matrix(-0.8648 -0.5021 0.5021 -0.8648 481.9835 -988.2896)" style="opacity:0.6;clip-path:url(#SVGID_00000154400354817940807270000008017557790097130633_);fill:#C85C19;" width="258.2" height="34.5"/>
		
			<rect x="-60" y="-641.1" transform="matrix(0.8648 0.5021 -0.5021 0.8648 -295.8049 -116.8261)" style="opacity:0.6;clip-path:url(#SVGID_00000154400354817940807270000008017557790097130633_);fill:#ED7339;" width="258.2" height="66.8"/>
		
			<rect x="70.4" y="-758.3" transform="matrix(0.8648 0.5021 -0.5021 0.8648 -336.9943 -198.152)" style="opacity:0.6;clip-path:url(#SVGID_00000154400354817940807270000008017557790097130633_);fill:#ED7339;" width="258.2" height="66.8"/>
		
			<rect x="-211.2" y="-388.1" transform="matrix(0.8648 0.5021 -0.5021 0.8648 -200.8354 -9.8361)" style="opacity:0.6;clip-path:url(#SVGID_00000154400354817940807270000008017557790097130633_);fill:#ED7339;" width="258.2" height="20.6"/>
		
			<rect x="-194.2" y="-734.3" transform="matrix(0.8648 0.5021 -0.5021 0.8648 -371.6267 -65.0011)" style="opacity:0.6;clip-path:url(#SVGID_00000154400354817940807270000008017557790097130633_);fill:#E89402;" width="258.2" height="23.5"/>
		
			<rect x="58.6" y="-660.3" transform="matrix(0.8648 0.5021 -0.5021 0.8648 -300.273 -181.9437)" style="opacity:0.6;clip-path:url(#SVGID_00000154400354817940807270000008017557790097130633_);fill:#E89402;" width="258.2" height="23.5"/>
		
			<rect x="-163.8" y="-640.6" transform="matrix(0.8648 0.5021 -0.5021 0.8648 -311.4965 -65.201)" style="opacity:0.6;clip-path:url(#SVGID_00000154400354817940807270000008017557790097130633_);fill:#FDC500;" width="258.2" height="59.1"/>
		
			<rect x="-37.3" y="-694.6" transform="matrix(0.8648 0.5021 -0.5021 0.8648 -316.399 -134.6289)" style="opacity:0.6;clip-path:url(#SVGID_00000154400354817940807270000008017557790097130633_);fill:#FDC500;" width="258.2" height="79.6"/>
		
			<rect x="-75" y="-349.9" transform="matrix(0.8648 0.5021 -0.5021 0.8648 -160.9507 -64.2278)" style="opacity:0.6;clip-path:url(#SVGID_00000154400354817940807270000008017557790097130633_);fill:#FDC500;" width="227.5" height="37.8"/>
		
			<rect x="232.8" y="-735.1" transform="matrix(0.8648 0.5021 -0.5021 0.8648 -315.4459 -279.8185)" style="opacity:0.6;clip-path:url(#SVGID_00000154400354817940807270000008017557790097130633_);fill:#FDC500;" width="258.2" height="18.9"/>
		
			<rect x="-307" y="-423.3" transform="matrix(0.8648 0.5021 -0.5021 0.8648 -219.8353 36.6447)" style="opacity:0.6;clip-path:url(#SVGID_00000154400354817940807270000008017557790097130633_);fill:#C85C19;" width="258.2" height="66.8"/>
		
			<rect x="-179.3" y="-436.6" transform="matrix(0.8648 0.5021 -0.5021 0.8648 -217.3724 -31.4637)" style="opacity:0.6;clip-path:url(#SVGID_00000154400354817940807270000008017557790097130633_);fill:#C85C19;" width="258.2" height="34.5"/>
		
			<rect x="-218.2" y="-501.5" transform="matrix(-0.8648 -0.5021 0.5021 -0.8648 68.7492 -917.5972)" style="opacity:0.6;clip-path:url(#SVGID_00000154400354817940807270000008017557790097130633_);fill:#ED7339;" width="258.2" height="66.8"/>
		
			<rect x="-421.5" y="-559.8" transform="matrix(-0.8648 -0.5021 0.5021 -0.8648 -284.2138 -1116.6008)" style="opacity:0.6;clip-path:url(#SVGID_00000154400354817940807270000008017557790097130633_);fill:#FDC500;" width="258.2" height="79.6"/>
		
			<rect x="-195.5" y="-555" transform="matrix(-0.8648 -0.5021 0.5021 -0.8648 134.8671 -994.0814)" style="opacity:0.6;clip-path:url(#SVGID_00000154400354817940807270000008017557790097130633_);fill:#FDC500;" width="258.2" height="79.6"/>
	</g>
	<g>
		<g>
			
				<image style="overflow:visible;opacity:0.8;" width="623" height="47" xlink:href="CD09FEC4.png"  transform="matrix(1 0 0 1 214.0461 -336.4154)">
			</image>
			<g>
				<text transform="matrix(0.96 0 0 1 215.826 -300.3581)" class="st6 st7" style="font-size:40.9054px; letter-spacing:-1;">JUAN JOSE HUERTAS BOTACHE</text>
			</g>
		</g>
		<g>
			<path class="st21" d="M403-243.9h15.8l3.1,2.8v13.4l-3.1,2.6H403V-243.9z M418.1-239.4l-0.8-0.7h-10.6v11.3h10.7l0.7-0.6V-239.4z
				"/>
			<path class="st21" d="M429.7-228.9H443v3.8h-17.1v-18.8h17v3.8h-13.2v3.7h8.3v3.8h-8.3V-228.9z"/>
			<path class="st21" d="M475.9-243.9h4.3v18.8h-3.8v-11.2l-5.4,11.2h-4.4l-5.5-11.2v11.2h-3.8v-18.8h4.3l7.1,14.7L475.9-243.9z"/>
			<path class="st21" d="M499.5-243.9h3.8v16.2l-3.1,2.6h-12.8l-3.1-2.6v-16.2h3.8v14.4l0.7,0.6h10l0.7-0.6V-243.9z"/>
			<path class="st21" d="M511-228.9h13.3v3.8h-17.1v-18.8h3.8V-228.9z"/>
			<path class="st21" d="M544.4-243.9v3.8h-7.6v15h-3.8v-15h-7.5v-3.8H544.4z"/>
			<path class="st21" d="M547.2-225.1l-0.1-18.8l3.8,0l0.1,18.8L547.2-225.1z"/>
			<path class="st21" d="M573.7-243.9h4.3v18.8h-3.8v-11.2l-5.4,11.2h-4.4l-5.5-11.2v11.2h-3.8v-18.8h4.3l7.1,14.7L573.7-243.9z"/>
			<path class="st21" d="M586-228.9h13.3v3.8h-17.1v-18.8h17v3.8H586v3.7h8.3v3.8H586V-228.9z"/>
			<path class="st21" d="M602.6-243.9h15.8l3.1,2.8v13.4l-3.1,2.6h-15.8V-243.9z M617.8-239.4l-0.8-0.7h-10.6v11.3h10.7l0.7-0.6
				V-239.4z"/>
			<path class="st21" d="M625.7-225.1l-0.1-18.8l3.8,0l0.1,18.8L625.7-225.1z"/>
			<path class="st21" d="M647.6-243.9l9.7,18.8h-4.2l-2.2-4.3h-12.5l-2.2,4.3h-4.2l9.7-18.8H647.6z M648.9-233.2l-3.6-7h-1.4l-3.6,7
				H648.9z"/>
			<path class="st21" d="M257.4-284.3v3.8h-7.6v15h-3.8v-15h-7.5v-3.8H257.4z"/>
			<path class="st21" d="M263.9-269.3h13.3v3.8h-17.1v-18.8h17v3.8h-13.2v3.7h8.3v3.8h-8.3V-269.3z"/>
			<path class="st21" d="M296.1-284.3l3.1,2.8v3.5h-3.8v-1.8l-0.8-0.7h-9.8l-0.8,0.7v10l0.7,0.6h10l0.7-0.6v-1.9h3.8v3.7l-3.1,2.6
				h-12.8l-3.1-2.6v-13.4l3.1-2.8H296.1z"/>
			<path class="st21" d="M321.8-284.3l0.1,18.8h-3.8l-11.4-13.1v13.1h-3.8v-18.8h3.8l11.4,13l-0.1-13L321.8-284.3z"/>
			<path class="st21" d="M326.2-265.5l-0.1-18.8l3.8,0l0.1,18.8L326.2-265.5z"/>
			<path class="st21" d="M349.7-284.3l3.1,2.8v3.5h-3.8v-1.8l-0.8-0.7h-9.8l-0.8,0.7v10l0.7,0.6h10l0.7-0.6v-1.9h3.8v3.7l-3.1,2.6
				H337l-3.1-2.6v-13.4l3.1-2.8H349.7z"/>
			<path class="st21" d="M372.1-284.3l3.1,2.8v13.4l-3.1,2.6h-12.8l-3.1-2.6v-13.4l3.1-2.8H372.1z M371.5-279.8l-0.8-0.7h-9.8
				l-0.8,0.7v10l0.7,0.6h10l0.7-0.6V-279.8z"/>
			<path class="st21" d="M394.1-269.3h13.3v3.8h-17.1v-18.8h17v3.8h-13.2v3.7h8.3v3.8h-8.3V-269.3z"/>
			<path class="st21" d="M429.6-284.3l0.1,18.8h-3.8l-11.4-13.1v13.1h-3.8v-18.8h3.8l11.4,13l-0.1-13L429.6-284.3z"/>
			<path class="st21" d="M444.9-284.3h15.8l3.1,2.8v13.4l-3.1,2.6h-15.8V-284.3z M460.1-279.8l-0.8-0.7h-10.6v11.3h10.7l0.7-0.6
				V-279.8z"/>
			<path class="st21" d="M468-265.5l-0.1-18.8l3.8,0l0.1,18.8L468-265.5z"/>
			<path class="st21" d="M478.6-284.3h15.8v3.8h-14.3l-0.8,0.7v2.3l0.7,0.8l11.3-0.1l3.1,2.9v5.8l-3.1,2.6h-15.8v-3.8H490l0.7-0.6
				v-2.4l-0.8-0.7l-11.4,0l-2.9-3v-5.5L478.6-284.3z"/>
			<path class="st21" d="M502-269.3h13.3v3.8h-17.1v-18.8h17v3.8H502v3.7h8.3v3.8H502V-269.3z"/>
			<path class="st21" d="M537.5-284.3l0.1,18.8h-3.8l-11.4-13.1v13.1h-3.8v-18.8h3.8l11.4,13l-0.1-13L537.5-284.3z"/>
			<path class="st21" d="M557.4-284.3l3.1,2.8v13.4l-3.1,2.6h-12.8l-3.1-2.6v-13.4l3.1-2.8H557.4z M556.7-279.8l-0.8-0.7h-9.8
				l-0.8,0.7v10l0.7,0.6h10l0.7-0.6V-279.8z"/>
			<path class="st21" d="M579.3-269.3h13.3v3.8h-17.1v-18.8h17v3.8h-13.2v3.7h8.3v3.8h-8.3V-269.3z"/>
			<path class="st21" d="M607.1-265.5l-0.1-18.8l3.8,0l0.1,18.8L607.1-265.5z"/>
			<path class="st21" d="M634-284.3l0.1,18.8h-3.8l-11.4-13.1v13.1h-3.8v-18.8h3.8l11.4,13l-0.1-13L634-284.3z"/>
			<path class="st21" d="M655.6-284.3v3.8h-7.6v15h-3.8v-15h-7.5v-3.8H655.6z"/>
			<path class="st21" d="M662.1-269.3h13.3v3.8h-17.1v-18.8h17v3.8h-13.2v3.7h8.3v3.8h-8.3V-269.3z"/>
			<path class="st21" d="M694.3-284.3l3.1,2.8v3.5h-3.8v-1.8l-0.8-0.7h-9.8l-0.8,0.7v10l0.7,0.6h10l0.7-0.6v-3.2h-5.7v-3.8h9.5v8.7
				l-3.1,2.6h-12.8l-3.1-2.6v-13.4l3.1-2.8H694.3z"/>
			<path class="st21" d="M716-270.8l4.7,5.3h-5l-4.6-5.3h-5.8v5.3h-3.8v-18.8h15.8l3.1,2.8v8.1l-3.1,2.6H716z M715.9-274.5l0.7-0.6
				v-4.7l-0.8-0.7h-10.6v6H715.9z"/>
			<path class="st21" d="M738.1-284.3l9.7,18.8h-4.2l-2.2-4.3h-12.5l-2.2,4.3h-4.2l9.7-18.8H738.1z M739.5-273.6l-3.6-7h-1.4l-3.6,7
				H739.5z"/>
			<path class="st21" d="M765.2-284.3l3.1,2.8v3.5h-3.8v-1.8l-0.8-0.7H754l-0.8,0.7v10l0.7,0.6h10l0.7-0.6v-1.9h3.8v3.7l-3.1,2.6
				h-12.8l-3.1-2.6v-13.4l3.1-2.8H765.2z"/>
			<path class="st21" d="M772.1-265.5l-0.1-18.8l3.8,0l0.1,18.8L772.1-265.5z"/>
			<path class="st21" d="M795.7-284.3l3.1,2.8v13.4l-3.1,2.6h-12.8l-3.1-2.6v-13.4l3.1-2.8H795.7z M795-279.8l-0.8-0.7h-9.8
				l-0.8,0.7v10l0.7,0.6h10l0.7-0.6V-279.8z"/>
			<path class="st21" d="M821.7-284.3l0.1,18.8H818l-11.4-13.1v13.1h-3.8v-18.8h3.8l11.4,13l-0.1-13L821.7-284.3z"/>
			
				<rect x="267.2" y="-290" transform="matrix(0.9619 -0.2735 0.2735 0.9619 89.1186 63.114)" class="st21" width="7.5" height="3.9"/>
			<rect x="518.7" y="-288.4" class="st21" width="18.7" height="2.7"/>
			
				<rect x="787" y="-290" transform="matrix(0.9619 -0.2735 0.2735 0.9619 108.9378 205.2777)" class="st21" width="7.5" height="3.9"/>
		</g>
		<g>
			
				<linearGradient id="SVGID_00000170978408484029685060000014924530823343131289_" gradientUnits="userSpaceOnUse" x1="551.7348" y1="-649.7807" x2="551.7348" y2="-345.2267">
				<stop  offset="0" style="stop-color:#F2E400"/>
				<stop  offset="0.215" style="stop-color:#F0E000"/>
				<stop  offset="0.4464" style="stop-color:#ECD302"/>
				<stop  offset="0.6855" style="stop-color:#E4BD04"/>
				<stop  offset="0.9283" style="stop-color:#D99F07"/>
				<stop  offset="1" style="stop-color:#D59508"/>
			</linearGradient>
			<path style="fill:url(#SVGID_00000170978408484029685060000014924530823343131289_);" d="M491.2-400.4c-4.5,0-8.2,1.5-11.4,4.6
				c-3.2,3.1-4.9,6.3-5.1,9.9c-0.6,11.3,4.2,22.1,14,32.1c10,10.2,21.8,15.1,35.9,15.1h38.9c14.2,0,26.9-5.2,37.6-15.3
				c10.7-10.1,16.4-22.5,17.2-36.6l10.8-129c0.2-4.3-1.1-7.8-3.9-10.9c-2.8-3-6.2-4.5-10.4-4.5h-74.8c-4.3,0-7.9,1.5-11.1,4.6
				c-3.2,3.1-4.9,6.7-5,10.8c-0.2,4.4,1.1,7.9,3.8,10.8c2.8,2.9,6.2,4.3,10.5,4.3h59.2l-10.1,114.3c-0.3,5.9-2.6,10.9-7,15.1
				c-4.4,4.1-9.5,6.2-15.4,6.2H528c-7.4,0-12.5-1.7-15.7-5.2c-2.7-3.1-5.1-7.5-6.9-13.1c-1.6-4.9-3.3-8.3-5.2-10.5
				C498.8-399.5,495.7-400.4,491.2-400.4z"/>
			
				<linearGradient id="SVGID_00000183944939906678118820000005816560128042644910_" gradientUnits="userSpaceOnUse" x1="558.2794" y1="-650.84" x2="558.2794" y2="-346.6188">
				<stop  offset="0" style="stop-color:#F2E400"/>
				<stop  offset="0.215" style="stop-color:#F0E000"/>
				<stop  offset="0.4464" style="stop-color:#ECD302"/>
				<stop  offset="0.6855" style="stop-color:#E4BD04"/>
				<stop  offset="0.9283" style="stop-color:#D99F07"/>
				<stop  offset="1" style="stop-color:#D59508"/>
			</linearGradient>
			<path style="fill:url(#SVGID_00000183944939906678118820000005816560128042644910_);" d="M549.9-611l1.1-21.5
				c0-0.4,0.2-0.8,0.5-1.1s0.7-0.5,1.2-0.5c0.4,0,0.8,0.2,1.1,0.5s0.4,0.7,0.4,1.1l-0.5,9.2h9.4l0.5-9.2c0-0.4,0.2-0.8,0.5-1.1
				c0.3-0.3,0.7-0.5,1.2-0.5c0.4,0,0.8,0.2,1.1,0.5c0.3,0.3,0.4,0.7,0.4,1.2l-1.1,21.4c0,0.4-0.2,0.8-0.5,1.1s-0.7,0.5-1.1,0.5
				c-0.5,0-0.8-0.2-1.1-0.5s-0.4-0.7-0.4-1.1l0.5-9.2h-9.4l-0.5,9.2c0,0.4-0.2,0.8-0.5,1.1c-0.3,0.3-0.7,0.5-1.2,0.5
				c-0.4,0-0.8-0.2-1.1-0.5C550-610.2,549.9-610.6,549.9-611z"/>
			
				<linearGradient id="SVGID_00000034080042460154016510000001150621253094310547_" gradientUnits="userSpaceOnUse" x1="612.1814" y1="-650.2168" x2="612.1814" y2="-345.1341">
				<stop  offset="0" style="stop-color:#F2E400"/>
				<stop  offset="0.215" style="stop-color:#F0E000"/>
				<stop  offset="0.4464" style="stop-color:#ECD302"/>
				<stop  offset="0.6855" style="stop-color:#E4BD04"/>
				<stop  offset="0.9283" style="stop-color:#D99F07"/>
				<stop  offset="1" style="stop-color:#D59508"/>
			</linearGradient>
			<path style="fill:url(#SVGID_00000034080042460154016510000001150621253094310547_);" d="M620.1-585.2l-0.1,1.4
				c-0.1,1.8-0.8,3.3-2.1,4.5c-1.3,1.3-2.9,1.9-4.6,1.9h-6.4c-1.8,0-3.2-1.4-3.1-3.2l0.9-18.6c0.1-1.8,1.6-3.2,3.4-3.2h6.4
				c1.8,0,3.2,0.6,4.4,1.9s1.7,2.8,1.6,4.5l-0.1,1.4c-0.1,1.9-0.9,3.5-2.4,4.8C619.6-588.6,620.2-587,620.1-585.2z M617.3-594.8
				l0.1-1.3c0-0.9-0.2-1.6-0.8-2.3c-0.6-0.6-1.3-1-2.2-1H608l-0.4,7.6h6.4c0.9,0,1.6-0.3,2.3-0.9
				C616.9-593.1,617.3-593.9,617.3-594.8z M616.8-583.8l0.1-1.3c0-0.9-0.2-1.6-0.8-2.3c-0.6-0.6-1.3-1-2.2-1h-6.4l-0.4,7.7h6.4
				c0.9,0,1.6-0.3,2.3-0.9C616.4-582.1,616.7-582.9,616.8-583.8z"/>
			
				<linearGradient id="SVGID_00000179632866049918986150000006334958904036450184_" gradientUnits="userSpaceOnUse" x1="584.6824" y1="-651.0313" x2="584.6824" y2="-342.7999">
				<stop  offset="0" style="stop-color:#F2E400"/>
				<stop  offset="0.215" style="stop-color:#F0E000"/>
				<stop  offset="0.4464" style="stop-color:#ECD302"/>
				<stop  offset="0.6855" style="stop-color:#E4BD04"/>
				<stop  offset="0.9283" style="stop-color:#D99F07"/>
				<stop  offset="1" style="stop-color:#D59508"/>
			</linearGradient>
			<path style="fill:url(#SVGID_00000179632866049918986150000006334958904036450184_);" d="M592.6-593.2c0.6-0.1,0.8-0.1,1.1,0.5
				c1.1,2.1,1.8,4.4,2.4,6.7c1.4,6,4.9,10,10.9,11.4c6,1.4,11.3-0.2,15.7-4.9c6.4-6.7,5.8-17.4-1.1-22.8c-4-3.1-8.5-3.9-13.6-2.7
				c-5,1.1-10,2.1-15.1,3.1c-10.1,2.1-20.2,4.3-30.3,6.5c-8.2,1.7-15.6,0.2-22-4.9c-9.2-7.3-12-20.1-7.1-31.2
				c6.2-13.7,22.1-20.5,35.5-15c8.1,3.4,13.2,9.5,15.2,18.1c0.2,1.1,0.6,2.1,0.9,3.1c0.1,0.5-0.7,5.1-8.3,7.2
				c-0.6,0.2-0.9,0-1.2-0.6c-1.1-2.2-1.9-4.5-2.4-7c-2.1-9-11.3-13.8-20.2-10.5c-10.6,3.9-14.2,17.7-6.8,25.6
				c3.9,4,8.8,5.5,14.5,4.2c4.2-0.9,8.3-1.7,12.4-2.6c11-2.3,22-4.6,33-7c7.7-1.7,14.6-0.5,21,3.7c8.6,5.7,12.8,16.8,10.3,27.1
				c-3.8,15.6-19.3,25.3-34.4,21.2c-9.7-2.6-15.7-9.1-18.1-18.9C584.8-584,583.8-590.8,592.6-593.2z"/>
			<g>
				
					<linearGradient id="SVGID_00000094611993479141146390000008634312729123153082_" gradientUnits="userSpaceOnUse" x1="529.6031" y1="-648.4484" x2="529.6031" y2="-351.071">
					<stop  offset="0" style="stop-color:#F2E400"/>
					<stop  offset="0.215" style="stop-color:#F0E000"/>
					<stop  offset="0.4464" style="stop-color:#ECD302"/>
					<stop  offset="0.6855" style="stop-color:#E4BD04"/>
					<stop  offset="0.9283" style="stop-color:#D99F07"/>
					<stop  offset="1" style="stop-color:#D59508"/>
				</linearGradient>
				<path style="fill:url(#SVGID_00000094611993479141146390000008634312729123153082_);" d="M567.9-564.9h-74.7
					c-4.2,0-7.7,1.4-10.8,4.5c-3.1,3-4.7,6.5-4.9,10.5c-0.2,4.2,1,7.7,3.7,10.5c2.7,2.8,6,4.2,10.1,4.2h27.9
					c0.6-0.7,1.1-1.2,1.7-1.9c3.1-3,6.6-5.1,10.5-6.2c2.7-0.9,5.6-1.4,8.5-1.4h41.6l0.2-5c0.2-4.2-1-7.6-3.7-10.6
					C575.2-563.4,572-564.9,567.9-564.9z"/>
				
					<linearGradient id="SVGID_00000115492398644173279870000002368755767037571751_" gradientUnits="userSpaceOnUse" x1="447.9367" y1="-653.1033" x2="447.9367" y2="-345.8694">
					<stop  offset="0" style="stop-color:#F2E400"/>
					<stop  offset="0.215" style="stop-color:#F0E000"/>
					<stop  offset="0.4464" style="stop-color:#ECD302"/>
					<stop  offset="0.6855" style="stop-color:#E4BD04"/>
					<stop  offset="0.9283" style="stop-color:#D99F07"/>
					<stop  offset="1" style="stop-color:#D59508"/>
				</linearGradient>
				<path style="fill:url(#SVGID_00000115492398644173279870000002368755767037571751_);" d="M467.6-402.1c-0.9-0.6-1.6-1.2-2.3-2
					c-2.9-3.2-5.2-7.5-7-13.3c-1.6-4.8-3.2-8.3-5-10.3c-1.4-1.6-4.4-2.5-8.8-2.5s-8,1.5-11.1,4.5s-4.8,6.2-5,9.6
					c-0.6,11.3,4,21.6,13.9,31.7c6,6.1,12.9,10.4,20.5,12.8c-1.3-4.9-1.8-9.8-1.6-14.9C461.4-392.2,463.6-397.4,467.6-402.1z"/>
				
					<linearGradient id="SVGID_00000003104249413282691170000006119825096892658317_" gradientUnits="userSpaceOnUse" x1="546.3361" y1="-649.9523" x2="546.3361" y2="-345.4227">
					<stop  offset="0" style="stop-color:#F2E400"/>
					<stop  offset="0.215" style="stop-color:#F0E000"/>
					<stop  offset="0.4464" style="stop-color:#ECD302"/>
					<stop  offset="0.6855" style="stop-color:#E4BD04"/>
					<stop  offset="0.9283" style="stop-color:#D99F07"/>
					<stop  offset="1" style="stop-color:#D59508"/>
				</linearGradient>
				<path style="fill:url(#SVGID_00000003104249413282691170000006119825096892658317_);" d="M533.8-405.1
					c-4.4,4.2-9.7,6.3-15.7,6.3h-4.2c1.1,2.3,2.2,4.9,3.1,7.8c1.3,4,2.8,7,4.4,8.8c0.2,0.2,1.2,0.7,3.7,1c0.5,0,1.1,0.1,1.6,0.1
					h23.1c1.4-1.1,2.8-2.3,4.1-3.5c10.7-10.2,16.3-22.1,17-36.3l8-71.6h-30l-8,72C540.6-414.4,538.2-409.3,533.8-405.1z"/>
			</g>
		</g>
	</g>
</g>
</svg>
