<?xml version="1.0" encoding="utf-8"?>
<!-- Generator: Adobe Illustrator 26.0.0, SVG Export Plug-In . SVG Version: 6.00 Build 0)  -->
<svg version="1.1" id="Capa_1" xmlns="http://www.w3.org/2000/svg" xmlns:xlink="http://www.w3.org/1999/xlink" x="0px" y="0px"
	 viewBox="0 0 16 16" style="enable-background:new 0 0 16 16;" xml:space="preserve">
<style type="text/css">
	.st0{fill:#FF9100;}
</style>
<g>
	<g>
		<path class="st0" d="M12.7,5.3c0,0-6.6-0.5-6.6-0.5c-0.3,0-0.4,0.3-0.3,0.5c0.6,0.9,1.3,1.7,2,2.6c0,0,0,0,0,0
			C7.9,8.1,8,8.4,8,8.6c0.1,0.5,0.2,1.9,0.3,2.4c0,0.3,0.4,0.4,0.5,0.1c1.1-1.4,2.9-3.7,3.9-5.1c0-0.1,0.2-0.2,0.2-0.3
			C13.1,5.6,13,5.3,12.7,5.3z M6.8,5.5l5.4,0.4c-0.9,1.2-2.4,3-3.4,4.4C8.7,9.8,8.7,9.3,8.7,9.3c-0.1-0.4-0.1-1-0.2-1.4
			c0.1-0.1,0.2-0.1,0.3-0.2C8.9,7.7,8.9,7.6,9,7.5c0.1,0,0.2-0.1,0.3-0.1c0.3-0.2,0.7-0.4,1-0.6l0,0c0,0,0,0,0,0
			c0.1-0.1,0-0.2-0.1-0.2c-0.7,0.3-1.4,0.5-2,0.8C7.7,6.7,7.3,6.1,6.8,5.5z"/>
		<path class="st0" d="M7.4,8C7.3,7.8,7.1,7.7,6.9,7.8c-0.1,0-1.6,0.7-2.7,1.3C4,9.2,4,9.4,4,9.6c0.1,0.1,0.2,0.2,0.3,0.2
			c0.1,0,0.1,0,0.2,0C5.5,9.3,7,8.6,7.2,8.5C7.3,8.4,7.5,8.2,7.4,8z"/>
		<path class="st0" d="M5.8,6.5C5.7,6.3,5.5,6.2,5.3,6.3c0,0-0.1,0-1.7,0.7C3.4,7.1,3.3,7.3,3.4,7.5c0.1,0.1,0.2,0.2,0.3,0.2
			c0.1,0,0.1,0,0.2,0C4.6,7.4,5.4,7,5.5,7C5.7,6.9,5.8,6.7,5.8,6.5z"/>
		<path class="st0" d="M7,10.2c0,0-0.1,0-1.4,0.7c-0.2,0.1-0.3,0.3-0.2,0.5c0.1,0.1,0.2,0.2,0.3,0.2c0.1,0,0.1,0,0.2,0
			c0.6-0.3,1.2-0.6,1.3-0.6c0.2-0.1,0.3-0.3,0.2-0.5C7.4,10.3,7.2,10.2,7,10.2z"/>
	</g>
	<path class="st0" d="M8,16c-4.4,0-8-3.6-8-8c0-4.4,3.6-8,8-8c4.4,0,8,3.6,8,8C16,12.4,12.4,16,8,16z M8,0.8C4,0.8,0.8,4,0.8,8
		S4,15.2,8,15.2c4,0,7.2-3.3,7.2-7.2S12,0.8,8,0.8z"/>
</g>
</svg>
