<?xml version="1.0" encoding="utf-8"?>
<!-- Generator: Adobe Illustrator 26.0.0, SVG Export Plug-In . SVG Version: 6.00 Build 0)  -->
<svg version="1.1" id="Capa_1" xmlns="http://www.w3.org/2000/svg" xmlns:xlink="http://www.w3.org/1999/xlink" x="0px" y="0px"
	 viewBox="0 0 338.5 436.3" style="enable-background:new 0 0 338.5 436.3;" xml:space="preserve">
<style type="text/css">
	.st0{stroke:#FFFFFF;stroke-width:0.25;stroke-miterlimit:10;}
	.st1{fill:#B2B2B2;stroke:#000000;stroke-miterlimit:10;}
	.st2{fill:#B2B2B2;}
	.st3{stroke:#FFFFFF;stroke-width:0.5;stroke-miterlimit:10;}
</style>
<image style="overflow:visible;enable-background:new    ;" width="184" height="256" xlink:href="../../../../../../../Downloads/iconos/96AFC455.jpg"  transform="matrix(1.474 0 0 1.474 426.6425 13.356)">
</image>
<rect x="66.9" y="73.7" width="204.5" height="256.6"/>
<path class="st0" d="M301.6,400.1c-2.8-0.6-5.4-1.6-7.6-2.8c-5.5-3.1-11.8-4.5-18.1-4.5l0,0c-5.3,0-9.5-4.3-9.5-9.5v-0.6
	c12.9-3.7,20.4-8.2,20.4-13c0-5.6-10.2-10.7-27.1-14.7c16.9-4,27.1-9.1,27.1-14.7c0-3.5-4-6.9-11.2-9.8c-2.1-1.3-3.5-3.4-4.1-5.8
	V111c3.5,0.7,7.2,1,10.9,1c30.9,0,55.9-24.5,55.9-54.8s-25-54.8-55.9-54.8c-0.9,0-1.7,0-2.6,0.1V0.1H56v2.3
	C25.1,2.4,0.1,26.9,0.1,57.2S25.1,112,56,112c3.6,0,7.1-0.3,10.6-1v211.2c0,3.8-2.2,7.2-5.6,8.8c-6.3,2.8-9.7,5.9-9.7,9.2
	c0,5.6,10.3,10.8,27.3,14.8c-16.9,4-27,9.1-27,14.7c0,4.8,7.5,9.3,20.4,13v0.6c0,5.3-4.3,9.5-9.5,9.5l0,0c-6.3,0-12.6,1.4-18.1,4.5
	c-2.2,1.3-4.8,2.2-7.6,2.8c-17.9,3.7-28.3,8.2-28.3,13.1c0,12.7,72,23,160.8,23s160.8-10.3,160.8-23
	C329.9,408.3,319.5,403.8,301.6,400.1z"/>
<path class="st1" d="M341.4,57.4c-1.6-16.2-9.5-30.9-22.4-41.4c-11.2-9.1-24.9-14.2-39.4-14.9L61.7,1C46.5,1.3,32.1,6.5,20.4,16
	C7.5,26.5-0.4,41.2-2,57.4c-2.6,26.6,16.9,50.9,44.1,56.4c1.7,0.3,3.5,0.6,5.2,0.8c12.3,1.3,24.2-2.1,33.5-9.6
	c8.6-7,13.8-16.7,14.9-27.5c1.8-18.9-12.9-36-32.9-38.2c-8.3-0.9-16.3,1.4-22.5,6.5c-5.8,4.7-9.3,11.3-10,18.6
	c-1.2,12.1,7.6,23.2,20,25.7c0.8,0.2,1.6,0.3,2.4,0.4c5.6,0.6,11.2-1,15.5-4.5c4-3.3,6.5-7.8,7-12.9c0.9-9-6.1-17.2-15.6-18.3
	c-4-0.4-8,0.7-11,3.2c-2.9,2.3-4.6,5.6-5,9.2c-0.4,4.5,1.8,8.8,5.5,11.2c2.5,1.7,5.9,0.1,6.3-2.9l0,0c0.2-1.5-0.6-3-1.9-3.9
	c-1.3-0.8-2-2.2-1.9-3.6s0.9-2.8,2-3.7c1.4-1.1,3.1-1.6,5-1.4c5.1,0.5,8.8,4.8,8.4,9.4c-0.3,2.9-1.7,5.5-4,7.4
	c-2.6,2.1-6,3.1-9.5,2.7c-9.2-1-15.9-8.7-15.1-17.2c0.5-5.1,3-9.7,7.1-13.1c4.5-3.7,10.4-5.4,16.5-4.7c15.6,1.7,27.1,14.8,25.7,29.3
	c-0.8,8.6-5.1,16.4-11.9,22c-7.6,6.2-17.3,9-27.5,7.9c-1.5-0.2-3-0.4-4.5-0.7C20.6,101.2,4,80.7,6.2,58.3c1.3-14,8.3-26.8,19.4-35.9
	c8.5-6.9,18.7-11.2,29.5-12.6c0.2,0,0.4,0,0.6,0l230,0.3c0.2,0,0.5,0,0.7,0.1c10.1,1.7,19.6,5.8,27.5,12.3
	c11.2,9.1,18.1,21.9,19.4,35.9c2.2,22.5-14.4,43-37.6,47.6c-1.5,0.3-3,0.5-4.5,0.7c-10.1,1.1-19.9-1.7-27.5-7.9
	c-6.9-5.6-11.1-13.4-11.9-22c-1.4-14.5,10.1-27.6,25.7-29.3c6.1-0.7,12,1,16.5,4.7c4.1,3.3,6.6,8,7.1,13.1c0.8,8.5-6,16.2-15.1,17.2
	c-3.5,0.4-6.9-0.6-9.5-2.7c-2.3-1.9-3.7-4.5-4-7.4c-0.4-4.6,3.3-8.9,8.4-9.4c1.9-0.2,3.6,0.3,5,1.4c1.2,1,1.9,2.3,2,3.7
	c0.1,1.5-0.6,2.8-1.9,3.6c-1.3,0.8-2,2.3-1.9,3.9l0,0c0.3,3,3.7,4.6,6.3,2.9c3.7-2.4,6-6.7,5.5-11.2c-0.3-3.6-2.1-6.9-5-9.2
	c-3-2.5-7-3.6-11-3.2c-9.5,1-16.5,9.2-15.6,18.3c0.5,5,3,9.6,7,12.9c4.2,3.5,9.9,5.1,15.5,4.5c0.8-0.1,1.6-0.2,2.4-0.4
	c12.3-2.5,21.2-13.5,20-25.7c-0.7-7.3-4.3-13.9-10-18.6c-6.2-5.1-14.2-7.4-22.5-6.5c-19.9,2.2-34.7,19.3-32.9,38.2
	c1,10.8,6.3,20.5,14.9,27.5c9.3,7.6,21.2,11,33.5,9.6c1.8-0.2,3.5-0.5,5.2-0.8C324.5,108.3,344,84,341.4,57.4z"/>
<path class="st1" d="M341.4,57.4c-1.6-16.2-9.5-30.9-22.4-41.4c-11.2-9.1-24.9-14.2-39.4-14.9L61.7,1C46.5,1.3,32.1,6.5,20.4,16
	C7.5,26.5-0.4,41.2-2,57.4c-2.6,26.6,16.9,50.9,44.1,56.4c1.7,0.3,3.5,0.6,5.2,0.8c12.3,1.3,24.2-2.1,33.5-9.6
	c8.6-7,13.8-16.7,14.9-27.5c1.8-18.9-12.9-36-32.9-38.2c-8.3-0.9-16.3,1.4-22.5,6.5c-5.8,4.7-9.3,11.3-10,18.6
	c-1.2,12.1,7.6,23.2,20,25.7c0.8,0.2,1.6,0.3,2.4,0.4c5.6,0.6,11.2-1,15.5-4.5c4-3.3,6.5-7.8,7-12.9c0.9-9-6.1-17.2-15.6-18.3
	c-4-0.4-8,0.7-11,3.2c-2.9,2.3-4.6,5.6-5,9.2c-0.4,4.5,1.8,8.8,5.5,11.2c2.5,1.7,5.9,0.1,6.3-2.9l0,0c0.2-1.5-0.6-3-1.9-3.9
	c-1.3-0.8-2-2.2-1.9-3.6s0.9-2.8,2-3.7c1.4-1.1,3.1-1.6,5-1.4c5.1,0.5,8.8,4.8,8.4,9.4c-0.3,2.9-1.7,5.5-4,7.4
	c-2.6,2.1-6,3.1-9.5,2.7c-9.2-1-15.9-8.7-15.1-17.2c0.5-5.1,3-9.7,7.1-13.1c4.5-3.7,10.4-5.4,16.5-4.7c15.6,1.7,27.1,14.8,25.7,29.3
	c-0.8,8.6-5.1,16.4-11.9,22c-7.6,6.2-17.3,9-27.5,7.9c-1.5-0.2-3-0.4-4.5-0.7C20.6,101.2,4,80.7,6.2,58.3c1.3-14,8.3-26.8,19.4-35.9
	c8.5-6.9,18.7-11.2,29.5-12.6c0.2,0,0.4,0,0.6,0l230,0.3c0.2,0,0.5,0,0.7,0.1c10.1,1.7,19.6,5.8,27.5,12.3
	c11.2,9.1,18.1,21.9,19.4,35.9c2.2,22.5-14.4,43-37.6,47.6c-1.5,0.3-3,0.5-4.5,0.7c-10.1,1.1-19.9-1.7-27.5-7.9
	c-6.9-5.6-11.1-13.4-11.9-22c-1.4-14.5,10.1-27.6,25.7-29.3c6.1-0.7,12,1,16.5,4.7c4.1,3.3,6.6,8,7.1,13.1c0.8,8.5-6,16.2-15.1,17.2
	c-3.5,0.4-6.9-0.6-9.5-2.7c-2.3-1.9-3.7-4.5-4-7.4c-0.4-4.6,3.3-8.9,8.4-9.4c1.9-0.2,3.6,0.3,5,1.4c1.2,1,1.9,2.3,2,3.7
	c0.1,1.5-0.6,2.8-1.9,3.6c-1.3,0.8-2,2.3-1.9,3.9l0,0c0.3,3,3.7,4.6,6.3,2.9c3.7-2.4,6-6.7,5.5-11.2c-0.3-3.6-2.1-6.9-5-9.2
	c-3-2.5-7-3.6-11-3.2c-9.5,1-16.5,9.2-15.6,18.3c0.5,5,3,9.6,7,12.9c4.2,3.5,9.9,5.1,15.5,4.5c0.8-0.1,1.6-0.2,2.4-0.4
	c12.3-2.5,21.2-13.5,20-25.7c-0.7-7.3-4.3-13.9-10-18.6c-6.2-5.1-14.2-7.4-22.5-6.5c-19.9,2.2-34.7,19.3-32.9,38.2
	c1,10.8,6.3,20.5,14.9,27.5c9.3,7.6,21.2,11,33.5,9.6c1.8-0.2,3.5-0.5,5.2-0.8C324.5,108.3,344,84,341.4,57.4z"/>
<path class="st2" d="M273.8,335.2c-10.7,10.6-58.3,18.6-115.4,18.6c-43.3,0-81.2-4.6-101.6-11.4c6.3,9.3,53.2,16.5,110.1,16.5
	c61.2,0,110.9-8.4,110.9-18.7C277.8,338.5,276.4,336.8,273.8,335.2z"/>
<path class="st2" d="M273.8,363.2c-10.7,10.6-58.3,18.6-115.4,18.6c-43.3,0-81.2-4.6-101.6-11.4c6.3,9.3,53.2,16.5,110.1,16.5
	c61.2,0,110.9-8.4,110.9-18.7C277.8,366.5,276.4,364.8,273.8,363.2z"/>
<path class="st2" d="M305.6,404c-9.2,11.2-75.3,19.9-155.4,19.9c-57.7,0-108.1-4.5-135.2-11.2c5.7,9.7,71.2,17.3,151.1,17.3
	c83.7,0,151.6-8.4,151.6-18.7C317.7,408.7,313.4,406.2,305.6,404z"/>
<g>
	<path class="st3" d="M176.2,337.4h-13.1c-5.3,0-9.6-4.3-9.6-9.6V119.5c0-5.3,4.3-9.6,9.6-9.6h13.1c5.3,0,9.6,4.3,9.6,9.6v208.3
		C185.9,333.1,181.5,337.4,176.2,337.4z"/>
	<g>
		<path class="st2" d="M166.5,319.6V125.4c-2.3-4.3-5.1-7-8.2-7.5v204.8c0,5.6,4.3,10.1,9.6,10.1h4.5
			C168.8,329.6,166.5,324.9,166.5,319.6z"/>
	</g>
</g>
<g>
	<path class="st3" d="M98.3,330.1L85,327.8c-5.3-0.9-9.4-6-9.4-11.4l1.1-187c0-4.7,4-9.2,8.9-10.1l12.4-2.1c5.2-0.9,9.5,2.4,9.5,7.3
		l1,196.9C108.5,327.2,103.9,331.1,98.3,330.1z"/>
	<g>
		<path class="st2" d="M88.4,310.9l0.3-178.6c-2.2-3.4-4.8-5.3-7.6-5.3l-0.8,185.7c0,5.4,4.2,10.5,9.6,11.4l4.6,0.8
			C90.7,321.1,88.4,316.1,88.4,310.9z"/>
	</g>
</g>
<g>
	<path class="st3" d="M215.2,335.9l-13.1,0.8c-5.4,0.3-9.8-3.9-9.8-9.5V120c0-5.6,4.4-9.8,9.8-9.5l13.1,0.8
		c5.3,0.3,9.5,5.1,9.5,10.6v203.5C224.7,330.8,220.4,335.6,215.2,335.9z"/>
	<g>
		<path class="st2" d="M208.7,317V128c-3.2-4.9-7.2-8.4-11.6-9.9v204.2c0,5.6,6.2,8.7,13.5,7.1l6.1-1.4
			C211.9,326.1,208.7,322.2,208.7,317z"/>
	</g>
</g>
<g>
	<path class="st3" d="M137.2,336.3l-13.1-1.4c-5.2-0.6-9.4-5.4-9.4-10.8v-201c0-5.4,4.2-10.3,9.4-10.8l13.1-1.4
		c5.4-0.6,9.8,3.5,9.8,9.1v207.3C147,332.8,142.6,336.9,137.2,336.3z"/>
	<g>
		<path class="st2" d="M127.4,317.8V127.2c-2.3-4-5.1-6.4-8.1-6.6V320c0,5.4,4.2,10.3,9.5,10.8l4.5,0.5
			C129.7,327.9,127.4,323,127.4,317.8z"/>
	</g>
</g>
<g>
	<path class="st3" d="M254.7,323.9l-13.5,3.8c-5.8,1.6-10.6-1.3-10.6-6.6v-197c0-5.3,4.8-8.3,10.6-6.6l13.5,3.8
		c5.2,1.5,9.3,6.6,9.3,11.4v179.8C264.1,317.3,259.9,322.4,254.7,323.9z"/>
	<g>
		<path class="st2" d="M250.9,305.6v-168c-4-5.7-9.1-10.7-15-14.2v191.9c0,5.2,8.2,5.2,17.4,0.4l7.1-3.7
			C254.7,312.4,250.9,310.2,250.9,305.6z"/>
	</g>
</g>
</svg>
